<svg width="20" height="20" viewBox="0 0 20 20" fill="none" xmlns="http://www.w3.org/2000/svg">
<g clip-path="url(#clip0)">
<path d="M10.1229 10.9088C4.48269 10.9088 1.37646 13.577 1.37646 18.422C1.37646 18.8004 1.68315 19.1071 2.06155 19.1071H18.1841C18.5625 19.1071 18.8692 18.8004 18.8692 18.422C18.8693 13.5772 15.763 10.9088 10.1229 10.9088ZM2.77158 17.7369C3.04105 14.1143 5.5108 12.279 10.1229 12.279C14.7349 12.279 17.2047 14.1143 17.4744 17.7369H2.77158Z" fill="#15499F" fill-opacity="0.5"/>
<path d="M10.1231 0.335476C7.53225 0.335476 5.57861 2.32842 5.57861 4.97107C5.57861 7.69112 7.61724 9.90375 10.1231 9.90375C12.6289 9.90375 14.6675 7.69112 14.6675 4.97129C14.6675 2.32842 12.7139 0.335476 10.1231 0.335476ZM10.1231 8.53379C8.37265 8.53379 6.94879 6.93567 6.94879 4.97129C6.94879 3.07906 8.28382 1.70566 10.1231 1.70566C11.9329 1.70566 13.2973 3.10942 13.2973 4.97129C13.2973 6.93567 11.8735 8.53379 10.1231 8.53379Z" fill="#15499F" fill-opacity="0.5"/>
</g>
<defs>
<clipPath id="clip0">
<rect width="18.7716" height="18.7716" fill="white" transform="translate(0.737305 0.33548)"/>
</clipPath>
</defs>
</svg>
